<svg width="252" height="26" viewBox="0 0 252 26" fill="none" xmlns="http://www.w3.org/2000/svg">
<path d="M6.41016 16.0801V17H1.89258V16.0801H6.41016ZM2.12109 8.46875V17H0.990234V8.46875H2.12109ZM5.8125 12.1367V13.0566H1.89258V12.1367H5.8125ZM6.35156 8.46875V9.39453H1.89258V8.46875H6.35156ZM8.37891 10.6602L9.76758 12.9688L11.1738 10.6602H12.4453L10.3711 13.7891L12.5098 17H11.2559L9.79102 14.6211L8.32617 17H7.06641L9.19922 13.7891L7.13086 10.6602H8.37891ZM16.0195 16.2266C16.2773 16.2266 16.5156 16.1738 16.7344 16.0684C16.9531 15.9629 17.1328 15.8184 17.2734 15.6348C17.4141 15.4473 17.4941 15.2344 17.5137 14.9961H18.5449C18.5254 15.3711 18.3984 15.7207 18.1641 16.0449C17.9336 16.3652 17.6309 16.625 17.2559 16.8242C16.8809 17.0195 16.4688 17.1172 16.0195 17.1172C15.543 17.1172 15.127 17.0332 14.7715 16.8652C14.4199 16.6973 14.127 16.4668 13.8926 16.1738C13.6621 15.8809 13.4883 15.5449 13.3711 15.166C13.2578 14.7832 13.2012 14.3789 13.2012 13.9531V13.707C13.2012 13.2812 13.2578 12.8789 13.3711 12.5C13.4883 12.1172 13.6621 11.7793 13.8926 11.4863C14.127 11.1934 14.4199 10.9629 14.7715 10.7949C15.127 10.627 15.543 10.543 16.0195 10.543C16.5156 10.543 16.9492 10.6445 17.3203 10.8477C17.6914 11.0469 17.9824 11.3203 18.1934 11.668C18.4082 12.0117 18.5254 12.4023 18.5449 12.8398H17.5137C17.4941 12.5781 17.4199 12.3418 17.291 12.1309C17.166 11.9199 16.9941 11.752 16.7754 11.627C16.5605 11.498 16.3086 11.4336 16.0195 11.4336C15.6875 11.4336 15.4082 11.5 15.1816 11.6328C14.959 11.7617 14.7812 11.9375 14.6484 12.1602C14.5195 12.3789 14.4258 12.623 14.3672 12.8926C14.3125 13.1582 14.2852 13.4297 14.2852 13.707V13.9531C14.2852 14.2305 14.3125 14.5039 14.3672 14.7734C14.4219 15.043 14.5137 15.2871 14.6426 15.5059C14.7754 15.7246 14.9531 15.9004 15.1758 16.0332C15.4023 16.1621 15.6836 16.2266 16.0195 16.2266ZM22.3945 17.1172C21.9531 17.1172 21.5527 17.043 21.1934 16.8945C20.8379 16.7422 20.5312 16.5293 20.2734 16.2559C20.0195 15.9824 19.8242 15.6582 19.6875 15.2832C19.5508 14.9082 19.4824 14.498 19.4824 14.0527V13.8066C19.4824 13.291 19.5586 12.832 19.7109 12.4297C19.8633 12.0234 20.0703 11.6797 20.332 11.3984C20.5938 11.1172 20.8906 10.9043 21.2227 10.7598C21.5547 10.6152 21.8984 10.543 22.2539 10.543C22.707 10.543 23.0977 10.6211 23.4258 10.7773C23.7578 10.9336 24.0293 11.1523 24.2402 11.4336C24.4512 11.7109 24.6074 12.0391 24.709 12.418C24.8105 12.793 24.8613 13.2031 24.8613 13.6484V14.1348H20.127V13.25H23.7773V13.168C23.7617 12.8867 23.7031 12.6133 23.6016 12.3477C23.5039 12.082 23.3477 11.8633 23.1328 11.6914C22.918 11.5195 22.625 11.4336 22.2539 11.4336C22.0078 11.4336 21.7812 11.4863 21.5742 11.5918C21.3672 11.6934 21.1895 11.8457 21.041 12.0488C20.8926 12.252 20.7773 12.5 20.6953 12.793C20.6133 13.0859 20.5723 13.4238 20.5723 13.8066V14.0527C20.5723 14.3535 20.6133 14.6367 20.6953 14.9023C20.7812 15.1641 20.9043 15.3945 21.0645 15.5938C21.2285 15.793 21.4258 15.9492 21.6562 16.0625C21.8906 16.1758 22.1562 16.2324 22.4531 16.2324C22.8359 16.2324 23.1602 16.1543 23.4258 15.998C23.6914 15.8418 23.9238 15.6328 24.123 15.3711L24.7793 15.8926C24.6426 16.0996 24.4688 16.2969 24.2578 16.4844C24.0469 16.6719 23.7871 16.8242 23.4785 16.9414C23.1738 17.0586 22.8125 17.1172 22.3945 17.1172ZM27.3047 8V17H26.2148V8H27.3047ZM30.2227 8V17H29.1328V8H30.2227ZM34.5938 17.1172C34.1523 17.1172 33.752 17.043 33.3926 16.8945C33.0371 16.7422 32.7305 16.5293 32.4727 16.2559C32.2188 15.9824 32.0234 15.6582 31.8867 15.2832C31.75 14.9082 31.6816 14.498 31.6816 14.0527V13.8066C31.6816 13.291 31.7578 12.832 31.9102 12.4297C32.0625 12.0234 32.2695 11.6797 32.5312 11.3984C32.793 11.1172 33.0898 10.9043 33.4219 10.7598C33.7539 10.6152 34.0977 10.543 34.4531 10.543C34.9062 10.543 35.2969 10.6211 35.625 10.7773C35.957 10.9336 36.2285 11.1523 36.4395 11.4336C36.6504 11.7109 36.8066 12.0391 36.9082 12.418C37.0098 12.793 37.0605 13.2031 37.0605 13.6484V14.1348H32.3262V13.25H35.9766V13.168C35.9609 12.8867 35.9023 12.6133 35.8008 12.3477C35.7031 12.082 35.5469 11.8633 35.332 11.6914C35.1172 11.5195 34.8242 11.4336 34.4531 11.4336C34.207 11.4336 33.9805 11.4863 33.7734 11.5918C33.5664 11.6934 33.3887 11.8457 33.2402 12.0488C33.0918 12.252 32.9766 12.5 32.8945 12.793C32.8125 13.0859 32.7715 13.4238 32.7715 13.8066V14.0527C32.7715 14.3535 32.8125 14.6367 32.8945 14.9023C32.9805 15.1641 33.1035 15.3945 33.2637 15.5938C33.4277 15.793 33.625 15.9492 33.8555 16.0625C34.0898 16.1758 34.3555 16.2324 34.6523 16.2324C35.0352 16.2324 35.3594 16.1543 35.625 15.998C35.8906 15.8418 36.123 15.6328 36.3223 15.3711L36.9785 15.8926C36.8418 16.0996 36.668 16.2969 36.457 16.4844C36.2461 16.6719 35.9863 16.8242 35.6777 16.9414C35.373 17.0586 35.0117 17.1172 34.5938 17.1172ZM39.4102 12.0137V17H38.3262V10.6602H39.3516L39.4102 12.0137ZM39.1523 13.5898L38.7012 13.5723C38.7051 13.1387 38.7695 12.7383 38.8945 12.3711C39.0195 12 39.1953 11.6777 39.4219 11.4043C39.6484 11.1309 39.918 10.9199 40.2305 10.7715C40.5469 10.6191 40.8965 10.543 41.2793 10.543C41.5918 10.543 41.873 10.5859 42.123 10.6719C42.373 10.7539 42.5859 10.8867 42.7617 11.0703C42.9414 11.2539 43.0781 11.4922 43.1719 11.7852C43.2656 12.0742 43.3125 12.4277 43.3125 12.8457V17H42.2227V12.834C42.2227 12.502 42.1738 12.2363 42.0762 12.0371C41.9785 11.834 41.8359 11.6875 41.6484 11.5977C41.4609 11.5039 41.2305 11.457 40.957 11.457C40.6875 11.457 40.4414 11.5137 40.2188 11.627C40 11.7402 39.8105 11.8965 39.6504 12.0957C39.4941 12.2949 39.3711 12.5234 39.2812 12.7812C39.1953 13.0352 39.1523 13.3047 39.1523 13.5898ZM47.6133 10.6602V11.4922H44.1855V10.6602H47.6133ZM45.3457 9.11914H46.4297V15.4297C46.4297 15.6445 46.4629 15.8066 46.5293 15.916C46.5957 16.0254 46.6816 16.0977 46.7871 16.1328C46.8926 16.168 47.0059 16.1855 47.127 16.1855C47.2168 16.1855 47.3105 16.1777 47.4082 16.1621C47.5098 16.1426 47.5859 16.127 47.6367 16.1152L47.6426 17C47.5566 17.0273 47.4434 17.0527 47.3027 17.0762C47.166 17.1035 47 17.1172 46.8047 17.1172C46.5391 17.1172 46.2949 17.0645 46.0723 16.959C45.8496 16.8535 45.6719 16.6777 45.5391 16.4316C45.4102 16.1816 45.3457 15.8457 45.3457 15.4238V9.11914Z" fill="white"/>
<rect width="20" height="20" transform="translate(62 3)" fill="#219653"/>
<path d="M72 16.6761L75.0417 15.8616L76.3125 20L72 16.6761ZM79 11.327H73.6458L72 6L70.3542 11.327H65L69.3333 14.6289L67.6875 19.956L72.0208 16.6541L74.6875 14.6289L79 11.327Z" fill="#F8FAFC"/>
<rect width="20" height="20" transform="translate(84 3)" fill="#219653"/>
<path d="M94 16.6761L97.0417 15.8616L98.3125 20L94 16.6761ZM101 11.327H95.6458L94 6L92.3542 11.327H87L91.3333 14.6289L89.6875 19.956L94.0208 16.6541L96.6875 14.6289L101 11.327Z" fill="#F8FAFC"/>
<rect width="20" height="20" transform="translate(106 3)" fill="#219653"/>
<path d="M116 16.6761L119.042 15.8616L120.313 20L116 16.6761ZM123 11.327H117.646L116 6L114.354 11.327H109L113.333 14.6289L111.687 19.956L116.021 16.6541L118.687 14.6289L123 11.327Z" fill="#F8FAFC"/>
<rect width="20" height="20" transform="translate(128 3)" fill="#219653"/>
<path d="M138 16.6761L141.042 15.8616L142.313 20L138 16.6761ZM145 11.327H139.646L138 6L136.354 11.327H131L135.333 14.6289L133.687 19.956L138.021 16.6541L140.687 14.6289L145 11.327Z" fill="#F8FAFC"/>
<rect width="20" height="20" transform="translate(150 3)" fill="url(#paint0_linear_1279_6852)"/>
<path d="M160 16.6761L163.042 15.8616L164.313 20L160 16.6761ZM167 11.327H161.646L160 6L158.354 11.327H153L157.333 14.6289L155.687 19.956L160.021 16.6541L162.687 14.6289L167 11.327Z" fill="#F8FAFC"/>
<path d="M190 16.4792L193.042 15.7083L194.313 19.625L190 16.4792ZM197 11.4167H191.646L190 6.375L188.354 11.4167H183L187.333 14.5417L185.687 19.5833L190.021 16.4583L192.687 14.5417L197 11.4167Z" fill="#219653"/>
<path d="M205.143 8.46875V17H204.029V8.46875H205.143ZM207.885 8.46875V9.39453H201.293V8.46875H207.885ZM209.625 11.6562V17H208.541V10.6602H209.596L209.625 11.6562ZM211.605 10.625L211.6 11.6328C211.51 11.6133 211.424 11.6016 211.342 11.5977C211.264 11.5898 211.174 11.5859 211.072 11.5859C210.822 11.5859 210.602 11.625 210.41 11.7031C210.219 11.7812 210.057 11.8906 209.924 12.0312C209.791 12.1719 209.686 12.3398 209.607 12.5352C209.533 12.7266 209.484 12.9375 209.461 13.168L209.156 13.3438C209.156 12.9609 209.193 12.6016 209.268 12.2656C209.346 11.9297 209.465 11.6328 209.625 11.375C209.785 11.1133 209.988 10.9102 210.234 10.7656C210.484 10.6172 210.781 10.543 211.125 10.543C211.203 10.543 211.293 10.5527 211.395 10.5723C211.496 10.5879 211.566 10.6055 211.605 10.625ZM216.486 15.5352V10.6602H217.576V17H216.539L216.486 15.5352ZM216.691 14.1992L217.143 14.1875C217.143 14.6094 217.098 15 217.008 15.3594C216.922 15.7148 216.781 16.0234 216.586 16.2852C216.391 16.5469 216.135 16.752 215.818 16.9004C215.502 17.0449 215.117 17.1172 214.664 17.1172C214.355 17.1172 214.072 17.0723 213.814 16.9824C213.561 16.8926 213.342 16.7539 213.158 16.5664C212.975 16.3789 212.832 16.1348 212.73 15.834C212.633 15.5332 212.584 15.1719 212.584 14.75V10.6602H213.668V14.7617C213.668 15.0469 213.699 15.2832 213.762 15.4707C213.828 15.6543 213.916 15.8008 214.025 15.9102C214.139 16.0156 214.264 16.0898 214.4 16.1328C214.541 16.1758 214.686 16.1973 214.834 16.1973C215.295 16.1973 215.66 16.1094 215.93 15.9336C216.199 15.7539 216.393 15.5137 216.51 15.2129C216.631 14.9082 216.691 14.5703 216.691 14.1992ZM222.92 15.3184C222.92 15.1621 222.885 15.0176 222.814 14.8848C222.748 14.748 222.609 14.625 222.398 14.5156C222.191 14.4023 221.879 14.3047 221.461 14.2227C221.109 14.1484 220.791 14.0605 220.506 13.959C220.225 13.8574 219.984 13.7344 219.785 13.5898C219.59 13.4453 219.439 13.2754 219.334 13.0801C219.229 12.8848 219.176 12.6562 219.176 12.3945C219.176 12.1445 219.23 11.9082 219.34 11.6855C219.453 11.4629 219.611 11.2656 219.814 11.0938C220.021 10.9219 220.27 10.7871 220.559 10.6895C220.848 10.5918 221.17 10.543 221.525 10.543C222.033 10.543 222.467 10.6328 222.826 10.8125C223.186 10.9922 223.461 11.2324 223.652 11.5332C223.844 11.8301 223.939 12.1602 223.939 12.5234H222.855C222.855 12.3477 222.803 12.1777 222.697 12.0137C222.596 11.8457 222.445 11.707 222.246 11.5977C222.051 11.4883 221.811 11.4336 221.525 11.4336C221.225 11.4336 220.98 11.4805 220.793 11.5742C220.609 11.6641 220.475 11.7793 220.389 11.9199C220.307 12.0605 220.266 12.209 220.266 12.3652C220.266 12.4824 220.285 12.5879 220.324 12.6816C220.367 12.7715 220.441 12.8555 220.547 12.9336C220.652 13.0078 220.801 13.0781 220.992 13.1445C221.184 13.2109 221.428 13.2773 221.725 13.3438C222.244 13.4609 222.672 13.6016 223.008 13.7656C223.344 13.9297 223.594 14.1309 223.758 14.3691C223.922 14.6074 224.004 14.8965 224.004 15.2363C224.004 15.5137 223.945 15.7676 223.828 15.998C223.715 16.2285 223.549 16.4277 223.33 16.5957C223.115 16.7598 222.857 16.8887 222.557 16.9824C222.26 17.0723 221.926 17.1172 221.555 17.1172C220.996 17.1172 220.523 17.0176 220.137 16.8184C219.75 16.6191 219.457 16.3613 219.258 16.0449C219.059 15.7285 218.959 15.3945 218.959 15.043H220.049C220.064 15.3398 220.15 15.5762 220.307 15.752C220.463 15.9238 220.654 16.0469 220.881 16.1211C221.107 16.1914 221.332 16.2266 221.555 16.2266C221.852 16.2266 222.1 16.1875 222.299 16.1094C222.502 16.0312 222.656 15.9238 222.762 15.7871C222.867 15.6504 222.92 15.4941 222.92 15.3184ZM228.082 10.6602V11.4922H224.654V10.6602H228.082ZM225.814 9.11914H226.898V15.4297C226.898 15.6445 226.932 15.8066 226.998 15.916C227.064 16.0254 227.15 16.0977 227.256 16.1328C227.361 16.168 227.475 16.1855 227.596 16.1855C227.686 16.1855 227.779 16.1777 227.877 16.1621C227.979 16.1426 228.055 16.127 228.105 16.1152L228.111 17C228.025 17.0273 227.912 17.0527 227.771 17.0762C227.635 17.1035 227.469 17.1172 227.273 17.1172C227.008 17.1172 226.764 17.0645 226.541 16.959C226.318 16.8535 226.141 16.6777 226.008 16.4316C225.879 16.1816 225.814 15.8457 225.814 15.4238V9.11914ZM230.438 11.8789V19.4375H229.348V10.6602H230.344L230.438 11.8789ZM234.709 13.7773V13.9004C234.709 14.3613 234.654 14.7891 234.545 15.1836C234.436 15.5742 234.275 15.9141 234.064 16.2031C233.857 16.4922 233.602 16.7168 233.297 16.877C232.992 17.0371 232.643 17.1172 232.248 17.1172C231.846 17.1172 231.49 17.0508 231.182 16.918C230.873 16.7852 230.611 16.5918 230.396 16.3379C230.182 16.084 230.01 15.7793 229.881 15.4238C229.756 15.0684 229.67 14.668 229.623 14.2227V13.5664C229.67 13.0977 229.758 12.6777 229.887 12.3066C230.016 11.9355 230.186 11.6191 230.396 11.3574C230.611 11.0918 230.871 10.8906 231.176 10.7539C231.48 10.6133 231.832 10.543 232.23 10.543C232.629 10.543 232.982 10.6211 233.291 10.7773C233.6 10.9297 233.859 11.1484 234.07 11.4336C234.281 11.7188 234.439 12.0605 234.545 12.459C234.654 12.8535 234.709 13.293 234.709 13.7773ZM233.619 13.9004V13.7773C233.619 13.4609 233.586 13.1641 233.52 12.8867C233.453 12.6055 233.35 12.3594 233.209 12.1484C233.072 11.9336 232.896 11.7656 232.682 11.6445C232.467 11.5195 232.211 11.457 231.914 11.457C231.641 11.457 231.402 11.5039 231.199 11.5977C231 11.6914 230.83 11.8184 230.689 11.9785C230.549 12.1348 230.434 12.3145 230.344 12.5176C230.258 12.7168 230.193 12.9238 230.15 13.1387V14.6562C230.229 14.9297 230.338 15.1875 230.479 15.4297C230.619 15.668 230.807 15.8613 231.041 16.0098C231.275 16.1543 231.57 16.2266 231.926 16.2266C232.219 16.2266 232.471 16.166 232.682 16.0449C232.896 15.9199 233.072 15.75 233.209 15.5352C233.35 15.3203 233.453 15.0742 233.52 14.7969C233.586 14.5156 233.619 14.2168 233.619 13.9004ZM237.27 10.6602V17H236.18V10.6602H237.27ZM236.098 8.97852C236.098 8.80273 236.15 8.6543 236.256 8.5332C236.365 8.41211 236.525 8.35156 236.736 8.35156C236.943 8.35156 237.102 8.41211 237.211 8.5332C237.324 8.6543 237.381 8.80273 237.381 8.97852C237.381 9.14648 237.324 9.29102 237.211 9.41211C237.102 9.5293 236.943 9.58789 236.736 9.58789C236.525 9.58789 236.365 9.5293 236.256 9.41211C236.15 9.29102 236.098 9.14648 236.098 8.97852ZM240.188 8V17H239.098V8H240.188ZM241.641 13.9004V13.7656C241.641 13.3086 241.707 12.8848 241.84 12.4941C241.973 12.0996 242.164 11.7578 242.414 11.4688C242.664 11.1758 242.967 10.9492 243.322 10.7891C243.678 10.625 244.076 10.543 244.518 10.543C244.963 10.543 245.363 10.625 245.719 10.7891C246.078 10.9492 246.383 11.1758 246.633 11.4688C246.887 11.7578 247.08 12.0996 247.213 12.4941C247.346 12.8848 247.412 13.3086 247.412 13.7656V13.9004C247.412 14.3574 247.346 14.7812 247.213 15.1719C247.08 15.5625 246.887 15.9043 246.633 16.1973C246.383 16.4863 246.08 16.7129 245.725 16.877C245.373 17.0371 244.975 17.1172 244.529 17.1172C244.084 17.1172 243.684 17.0371 243.328 16.877C242.973 16.7129 242.668 16.4863 242.414 16.1973C242.164 15.9043 241.973 15.5625 241.84 15.1719C241.707 14.7812 241.641 14.3574 241.641 13.9004ZM242.725 13.7656V13.9004C242.725 14.2168 242.762 14.5156 242.836 14.7969C242.91 15.0742 243.021 15.3203 243.17 15.5352C243.322 15.75 243.512 15.9199 243.738 16.0449C243.965 16.166 244.229 16.2266 244.529 16.2266C244.826 16.2266 245.086 16.166 245.309 16.0449C245.535 15.9199 245.723 15.75 245.871 15.5352C246.02 15.3203 246.131 15.0742 246.205 14.7969C246.283 14.5156 246.322 14.2168 246.322 13.9004V13.7656C246.322 13.4531 246.283 13.1582 246.205 12.8809C246.131 12.5996 246.018 12.3516 245.865 12.1367C245.717 11.918 245.529 11.7461 245.303 11.6211C245.08 11.4961 244.818 11.4336 244.518 11.4336C244.221 11.4336 243.959 11.4961 243.732 11.6211C243.51 11.7461 243.322 11.918 243.17 12.1367C243.021 12.3516 242.91 12.5996 242.836 12.8809C242.762 13.1582 242.725 13.4531 242.725 13.7656ZM251.426 10.6602V11.4922H247.998V10.6602H251.426ZM249.158 9.11914H250.242V15.4297C250.242 15.6445 250.275 15.8066 250.342 15.916C250.408 16.0254 250.494 16.0977 250.6 16.1328C250.705 16.168 250.818 16.1855 250.939 16.1855C251.029 16.1855 251.123 16.1777 251.221 16.1621C251.322 16.1426 251.398 16.127 251.449 16.1152L251.455 17C251.369 17.0273 251.256 17.0527 251.115 17.0762C250.979 17.1035 250.812 17.1172 250.617 17.1172C250.352 17.1172 250.107 17.0645 249.885 16.959C249.662 16.8535 249.484 16.6777 249.352 16.4316C249.223 16.1816 249.158 15.8457 249.158 15.4238V9.11914Z" fill="white"/>
<defs>
<linearGradient id="paint0_linear_1279_6852" x1="0" y1="10" x2="20" y2="10" gradientUnits="userSpaceOnUse">
<stop stop-color="#219653"/>
<stop offset="0.5" stop-color="#219653"/>
<stop offset="0.5001" stop-color="#219653" stop-opacity="0"/>
<stop offset="0.5002" stop-color="#D9D9D9"/>
<stop offset="0.9998" stop-color="#D9D9D9"/>
<stop offset="0.9999" stop-color="#219653" stop-opacity="0"/>
<stop offset="1" stop-color="#D9D9D9"/>
</linearGradient>
</defs>
</svg>
